<svg width="864" height="265" viewBox="0 0 864 265" fill="none" xmlns="http://www.w3.org/2000/svg">
<path d="M864 240C864 253.807 852.807 265 839 265H25C11.1929 265 0 253.807 0 240V25C0 11.1929 11.1929 0 25 0H839C852.807 0 864 11.1929 864 25V240Z" fill="#2563EB"/>
<path d="M135.249 42.1343C137.457 40.8193 140.207 40.8193 142.414 42.1343L215.568 85.715C221.678 89.3545 219.097 98.7287 211.986 98.7287H65.6779C58.5667 98.7287 55.9861 89.3545 62.0953 85.715L135.249 42.1343Z" fill="white"/>
<rect x="72.9292" y="103.543" width="25.296" height="74.4539" rx="7" fill="white"/>
<rect x="126.184" y="103.543" width="25.296" height="74.4539" rx="7" fill="white"/>
<rect x="179.439" y="103.543" width="25.296" height="74.4539" rx="7" fill="white"/>
<rect x="49.6303" y="184.415" width="179.069" height="11.5532" rx="5.7766" fill="white"/>
<rect x="40.3107" y="202.387" width="197.708" height="18.6135" rx="7" fill="white"/>
<path d="M280.64 72.56L310.24 72.72C325.707 72.72 339.307 78.32 351.04 89.52C362.773 100.613 368.64 114.32 368.64 130.64C368.64 146.853 362.88 160.773 351.36 172.4C339.947 184.027 326.08 189.84 309.76 189.84H280.48C273.973 189.84 269.92 188.507 268.32 185.84C267.04 183.6 266.4 180.187 266.4 175.6V86.64C266.4 84.08 266.453 82.2133 266.56 81.04C266.773 79.8667 267.307 78.48 268.16 76.88C269.653 74 273.813 72.56 280.64 72.56ZM310.24 161.52C317.92 161.52 324.853 158.693 331.04 153.04C337.227 147.28 340.32 140.08 340.32 131.44C340.32 122.8 337.28 115.6 331.2 109.84C325.227 103.973 318.187 101.04 310.08 101.04H294.72V161.52H310.24ZM424.496 189.68C413.723 189.68 404.763 185.627 397.616 177.52C390.576 169.307 387.056 159.333 387.056 147.6V119.6C387.056 117.04 387.11 115.173 387.216 114C387.43 112.827 387.91 111.44 388.656 109.84C390.15 106.96 394.31 105.52 401.136 105.52C408.603 105.52 412.976 107.547 414.256 111.6C414.896 113.307 415.216 116.027 415.216 119.76V147.76C415.216 152.133 416.443 155.547 418.896 158C421.456 160.453 424.816 161.68 428.976 161.68C433.243 161.68 436.656 160.4 439.216 157.84C441.883 155.28 443.216 151.92 443.216 147.76V119.44C443.216 116.987 443.27 115.173 443.376 114C443.59 112.72 444.123 111.28 444.976 109.68C446.363 106.907 450.47 105.52 457.296 105.52C464.016 105.52 468.123 106.96 469.616 109.84C470.363 111.44 470.79 112.88 470.896 114.16C471.11 115.333 471.216 117.147 471.216 119.6V176.24C471.216 178.587 471.11 180.4 470.896 181.68C470.79 182.853 470.31 184.187 469.456 185.68C467.856 188.453 463.75 189.84 457.136 189.84C450.63 189.84 446.63 188.56 445.136 186C444.07 184.187 443.536 182 443.536 179.44C443.11 180.187 442.15 181.253 440.656 182.64C439.163 184.027 437.723 185.2 436.336 186.16C432.71 188.507 428.763 189.68 424.496 189.68ZM573.368 137.84C573.368 144.347 571.714 149.2 568.408 152.4C565.208 155.493 561.634 157.04 557.688 157.04H519.768C519.768 160.027 521.528 162.533 525.048 164.56C528.568 166.587 532.088 167.6 535.608 167.6C541.794 167.6 546.648 166.96 550.168 165.68L551.928 165.04C554.488 163.867 556.621 163.28 558.328 163.28C561.741 163.28 564.674 165.68 567.128 170.48C568.514 173.36 569.208 175.813 569.208 177.84C569.208 187.333 557.848 192.08 535.128 192.08C527.234 192.08 520.194 190.747 514.008 188.08C507.928 185.307 503.181 181.68 499.768 177.2C493.048 168.56 489.688 158.907 489.688 148.24C489.688 134.8 494.008 124.08 502.648 116.08C511.394 107.973 522.274 103.92 535.288 103.92C550.114 103.92 560.994 109.147 567.927 119.6C571.554 125.147 573.368 131.227 573.368 137.84ZM539.608 142.48C543.661 142.48 545.688 140.773 545.688 137.36C545.688 134.907 544.728 132.933 542.808 131.44C540.994 129.947 538.328 129.2 534.808 129.2C531.394 129.2 527.981 130.64 524.568 133.52C521.154 136.293 519.448 139.28 519.448 142.48H539.608ZM592.446 182.48C590.42 181.2 589.406 179.173 589.406 176.4C589.406 173.627 591.433 169.413 595.486 163.76C596.66 161.947 598.526 161.04 601.086 161.04C603.753 161.04 607.326 162.373 611.806 165.04C616.286 167.6 620.34 168.88 623.966 168.88C630.473 168.88 633.726 167.6 633.726 165.04C633.726 163.013 630.153 161.52 623.006 160.56C616.286 159.6 609.62 157.093 603.006 153.04C599.913 151.12 597.353 148.133 595.326 144.08C593.3 139.92 592.286 135.013 592.286 129.36C592.286 112.507 603.86 104.08 627.006 104.08C634.58 104.08 642.366 105.893 650.366 109.52C654.1 111.227 655.966 113.36 655.966 115.92C655.966 118.48 654.793 121.627 652.446 125.36C650.1 129.093 647.7 130.96 645.246 130.96C643.966 130.96 641.566 130.16 638.046 128.56C634.633 126.96 630.9 126.16 626.846 126.16C620.553 126.16 617.406 127.333 617.406 129.68C617.406 132.88 621.033 134.96 628.286 135.92C635.326 136.667 642.153 138.693 648.766 142C651.86 143.493 654.42 146.107 656.446 149.84C658.58 153.467 659.646 158.053 659.646 163.6C659.646 169.147 658.58 173.893 656.446 177.84C654.42 181.68 651.54 184.56 647.806 186.48C640.98 189.787 632.393 191.44 622.046 191.44C611.806 191.44 601.94 188.453 592.446 182.48ZM678.088 80.08C678.088 77.6267 678.141 75.8133 678.248 74.64C678.461 73.36 678.941 71.92 679.688 70.32C681.181 67.44 685.341 66 692.168 66C698.674 66 702.728 67.44 704.328 70.32C705.181 71.92 705.661 73.36 705.768 74.64C705.981 75.92 706.088 77.7867 706.088 80.24V154.32C706.088 158.16 706.408 160.613 707.048 161.68C707.688 162.64 709.074 163.12 711.208 163.12C713.448 163.12 714.941 163.227 715.688 163.44C716.434 163.547 717.341 163.973 718.408 164.72C720.541 166.107 721.608 169.893 721.608 176.08C721.608 182.8 720.541 186.907 718.408 188.4C715.634 190.32 709.021 190.64 698.568 189.36C690.354 188.293 685.021 185.573 682.568 181.2C679.581 175.973 678.088 167.653 678.088 156.24V80.08ZM808.863 106.64C815.156 109.413 818.303 112.773 818.303 116.72C818.303 118.64 817.876 120.453 817.023 122.16C816.169 123.867 815.743 124.773 815.743 124.88L773.823 218.64C772.969 220.667 772.223 222.213 771.583 223.28C771.049 224.347 770.143 225.36 768.863 226.32C767.583 227.28 765.983 227.76 764.062 227.76C762.143 227.76 759.316 226.96 755.583 225.36C749.289 222.587 746.143 219.28 746.143 215.44C746.143 212.88 751.263 200.667 761.503 178.8L729.663 125.2C727.529 121.68 726.463 119.067 726.463 117.36C726.463 113.947 729.343 110.533 735.103 107.12C738.729 104.987 741.556 103.92 743.583 103.92C745.609 103.92 747.263 104.347 748.543 105.2C749.823 106.053 750.729 106.96 751.263 107.92C751.903 108.773 754.836 113.733 760.063 122.8C765.396 131.76 770.463 140.133 775.263 147.92C775.796 146.213 778.676 139.653 783.903 128.24C789.129 116.72 791.903 110.587 792.223 109.84C792.649 109.093 793.289 108.187 794.143 107.12C795.529 105.307 797.449 104.4 799.903 104.4C802.463 104.4 805.449 105.147 808.863 106.64Z" fill="white"/>
</svg>
