<svg width="329" height="312" viewBox="0 0 329 312" fill="none" xmlns="http://www.w3.org/2000/svg">
<rect width="329" height="312" fill="#F5F5F5"/>
<path d="M329 300C329 306.627 323.627 312 317 312H12C5.37258 312 0 306.627 0 300V12C0 5.37259 5.37258 0 12 0H317C323.627 0 329 5.37258 329 12V300Z" fill="#2563EB"/>
<path d="M160.261 29.3621C162.545 27.9193 165.455 27.9193 167.739 29.3621L276.055 97.7949C281.986 101.542 279.332 110.713 272.316 110.713H55.6835C48.6685 110.713 46.0141 101.542 51.9447 97.7949L160.261 29.3621Z" fill="white"/>
<rect x="75.4211" y="117.574" width="34" height="106.128" rx="7" fill="white"/>
<rect x="147" y="117.574" width="34" height="106.128" rx="7" fill="white"/>
<rect x="218.579" y="117.574" width="34" height="106.128" rx="7" fill="white"/>
<rect x="44.1053" y="232.851" width="240.684" height="16.4681" rx="7" fill="white"/>
<rect x="31.5789" y="258.468" width="265.737" height="26.5319" rx="7" fill="white"/>
</svg>
